# Apple ModelIO OBJ File: Plane
mtllib Plane.mtl
g 
v -21.5137 -10.3457 1.07753
v -23.8789 -10.3457 1.07753
v -23.8789 -12.9321 1.07753
v -21.5137 -12.9321 1.07753
v -19.1485 -10.3457 1.07753
v -19.1485 -12.9321 1.07753
v -16.7833 -10.3457 1.07753
v -16.7833 -12.9321 1.07753
v -14.4182 -10.3457 1.07753
v -14.4182 -12.9321 1.07753
v -12.053 -10.3457 1.07753
v -12.053 -12.9321 1.07753
v -9.68783 -10.3457 1.07753
v -9.68783 -12.9321 1.07753
v -7.32266 -10.3457 1.07753
v -7.32266 -12.9321 1.07753
v -4.95749 -10.3457 1.07753
v -4.95749 -12.9321 1.07753
v -2.59232 -10.3457 1.07753
v -2.59232 -12.9321 1.07753
v -0.2271 -10.3457 1.07753
v -0.2271 -12.9321 1.07753
v -21.5137 -7.75925 1.07753
v -23.8789 -7.75925 1.07753
v -19.1485 -7.75925 1.07753
v -16.7833 -7.75925 1.07753
v -14.4182 -7.75925 1.07753
v -12.053 -7.75925 1.07753
v -9.68783 -7.75925 1.07753
v -7.32266 -7.75925 1.07753
v -4.95749 -7.75925 1.07753
v -2.59232 -7.75925 1.07753
v -0.2271 -7.75925 1.07753
v -21.5137 -5.17283 1.07753
v -23.8789 -5.17283 1.07753
v -19.1485 -5.17283 1.07753
v -16.7833 -5.17283 1.07753
v -14.4182 -5.17283 1.07753
v -12.053 -5.17283 1.07753
v -9.68783 -5.17283 1.07753
v -7.32266 -5.17283 1.07753
v -4.95749 -5.17283 1.07753
v -2.59232 -5.17283 1.07753
v -0.2271 -5.17283 1.07753
v -21.5137 -2.58642 1.07753
v -23.8789 -2.58642 1.07753
v -19.1485 -2.58642 1.07753
v -16.7833 -2.58642 1.07753
v -14.4182 -2.58642 1.07753
v -12.053 -2.58642 1.07753
v -9.68783 -2.58642 1.07753
v -7.32266 -2.58642 1.07753
v -4.95749 -2.58642 1.07753
v -2.59232 -2.58642 1.07753
v -0.2271 -2.58642 1.07753
v -21.5137 0 1.07753
v -23.8789 0 1.07753
v -19.1485 0 1.07753
v -16.7833 0 1.07753
v -14.4182 0 1.07753
v -12.053 0 1.07753
v -9.68783 0 1.07753
v -7.32266 0 1.07753
v -4.95749 0 1.07753
v -2.59232 0 1.07753
v -0.2271 0 1.07753
v -21.5137 2.58642 1.07753
v -23.8789 2.58642 1.07753
v -19.1485 2.58642 1.07753
v -16.7833 2.58642 1.07753
v -14.4182 2.58642 1.07753
v -12.053 2.58642 1.07753
v -9.68783 2.58642 1.07753
v -7.32266 2.58642 1.07753
v -4.95749 2.58642 1.07753
v -2.59232 2.58642 1.07753
v -0.2271 2.58642 1.07753
v -21.5137 5.17283 1.07753
v -23.8789 5.17283 1.07753
v -19.1485 5.17283 1.07753
v -16.7833 5.17283 1.07753
v -14.4182 5.17283 1.07753
v -12.053 5.17283 1.07753
v -9.68783 5.17283 1.07753
v -7.32266 5.17283 1.07753
v -4.95749 5.17283 1.07753
v -2.59232 5.17283 1.07753
v -0.2271 5.17283 1.07753
v -21.5137 7.75925 1.07753
v -23.8789 7.75925 1.07753
v -19.1485 7.75925 1.07753
v -16.7833 7.75925 1.07753
v -14.4182 7.75925 1.07753
v -12.053 7.75925 1.07753
v -9.68783 7.75925 1.07753
v -7.32266 7.75925 1.07753
v -4.95749 7.75925 1.07753
v -2.59232 7.75925 1.07753
v -0.2271 7.75925 1.07753
v -21.5137 10.3457 1.07753
v -23.8789 10.3457 1.07753
v -19.1485 10.3457 1.07753
v -16.7833 10.3457 1.07753
v -14.4182 10.3457 1.07753
v -12.053 10.3457 1.07753
v -9.68783 10.3457 1.07753
v -7.32266 10.3457 1.07753
v -4.95749 10.3457 1.07753
v -2.59232 10.3457 1.07753
v -0.2271 10.3457 1.07753
v -21.5137 12.9321 1.07753
v -23.8789 12.9321 1.07753
v -19.1485 12.9321 1.07753
v -16.7833 12.9321 1.07753
v -14.4182 12.9321 1.07753
v -12.053 12.9321 1.07753
v -9.68783 12.9321 1.07753
v -7.32266 12.9321 1.07753
v -4.95749 12.9321 1.07753
v -2.59232 12.9321 1.07753
v -0.2271 12.9321 1.07753
vn 0 0 1
vt 0.1 0.1
vt 0 0.1
vt 0 0
vt 0.1 0
vt 0.2 0.1
vt 0.2 0
vt 0.3 0.1
vt 0.3 0
vt 0.4 0.1
vt 0.4 0
vt 0.5 0.1
vt 0.5 0
vt 0.6 0.1
vt 0.6 0
vt 0.7 0.1
vt 0.7 0
vt 0.8 0.1
vt 0.8 0
vt 0.9 0.1
vt 0.9 0
vt 1 0.1
vt 1 0
vt 0.1 0.2
vt 0 0.2
vt 0.2 0.2
vt 0.3 0.2
vt 0.4 0.2
vt 0.5 0.2
vt 0.6 0.2
vt 0.7 0.2
vt 0.8 0.2
vt 0.9 0.2
vt 1 0.2
vt 0.1 0.3
vt 0 0.3
vt 0.2 0.3
vt 0.3 0.3
vt 0.4 0.3
vt 0.5 0.3
vt 0.6 0.3
vt 0.7 0.3
vt 0.8 0.3
vt 0.9 0.3
vt 1 0.3
vt 0.1 0.4
vt 0 0.4
vt 0.2 0.4
vt 0.3 0.4
vt 0.4 0.4
vt 0.5 0.4
vt 0.6 0.4
vt 0.7 0.4
vt 0.8 0.4
vt 0.9 0.4
vt 1 0.4
vt 0.1 0.5
vt 0 0.5
vt 0.2 0.5
vt 0.3 0.5
vt 0.4 0.5
vt 0.5 0.5
vt 0.6 0.5
vt 0.7 0.5
vt 0.8 0.5
vt 0.9 0.5
vt 1 0.5
vt 0.1 0.6
vt 0 0.6
vt 0.2 0.6
vt 0.3 0.6
vt 0.4 0.6
vt 0.5 0.6
vt 0.6 0.6
vt 0.7 0.6
vt 0.8 0.6
vt 0.9 0.6
vt 1 0.6
vt 0.1 0.7
vt 0 0.7
vt 0.2 0.7
vt 0.3 0.7
vt 0.4 0.7
vt 0.5 0.7
vt 0.6 0.7
vt 0.7 0.7
vt 0.8 0.7
vt 0.9 0.7
vt 1 0.7
vt 0.1 0.8
vt 0 0.8
vt 0.2 0.8
vt 0.3 0.8
vt 0.4 0.8
vt 0.5 0.8
vt 0.6 0.8
vt 0.7 0.8
vt 0.8 0.8
vt 0.9 0.8
vt 1 0.8
vt 0.1 0.9
vt 0 0.9
vt 0.2 0.9
vt 0.3 0.9
vt 0.4 0.9
vt 0.5 0.9
vt 0.6 0.9
vt 0.7 0.9
vt 0.8 0.9
vt 0.9 0.9
vt 1 0.9
vt 0.1 1
vt 0 1
vt 0.2 1
vt 0.3 1
vt 0.4 1
vt 0.5 1
vt 0.6 1
vt 0.7 1
vt 0.8 1
vt 0.9 1
vt 1 1
usemtl material_1
f 1/1/1 2/2/1 3/3/1
f 4/4/1 1/1/1 3/3/1
f 5/5/1 1/1/1 4/4/1
f 6/6/1 5/5/1 4/4/1
f 7/7/1 5/5/1 6/6/1
f 8/8/1 7/7/1 6/6/1
f 9/9/1 7/7/1 8/8/1
f 10/10/1 9/9/1 8/8/1
f 11/11/1 9/9/1 10/10/1
f 12/12/1 11/11/1 10/10/1
f 13/13/1 11/11/1 12/12/1
f 14/14/1 13/13/1 12/12/1
f 15/15/1 13/13/1 14/14/1
f 16/16/1 15/15/1 14/14/1
f 17/17/1 15/15/1 16/16/1
f 18/18/1 17/17/1 16/16/1
f 19/19/1 17/17/1 18/18/1
f 20/20/1 19/19/1 18/18/1
f 21/21/1 19/19/1 20/20/1
f 22/22/1 21/21/1 20/20/1
f 23/23/1 24/24/1 2/2/1
f 1/1/1 23/23/1 2/2/1
f 25/25/1 23/23/1 1/1/1
f 5/5/1 25/25/1 1/1/1
f 26/26/1 25/25/1 5/5/1
f 7/7/1 26/26/1 5/5/1
f 27/27/1 26/26/1 7/7/1
f 9/9/1 27/27/1 7/7/1
f 28/28/1 27/27/1 9/9/1
f 11/11/1 28/28/1 9/9/1
f 29/29/1 28/28/1 11/11/1
f 13/13/1 29/29/1 11/11/1
f 30/30/1 29/29/1 13/13/1
f 15/15/1 30/30/1 13/13/1
f 31/31/1 30/30/1 15/15/1
f 17/17/1 31/31/1 15/15/1
f 32/32/1 31/31/1 17/17/1
f 19/19/1 32/32/1 17/17/1
f 33/33/1 32/32/1 19/19/1
f 21/21/1 33/33/1 19/19/1
f 34/34/1 35/35/1 24/24/1
f 23/23/1 34/34/1 24/24/1
f 36/36/1 34/34/1 23/23/1
f 25/25/1 36/36/1 23/23/1
f 37/37/1 36/36/1 25/25/1
f 26/26/1 37/37/1 25/25/1
f 38/38/1 37/37/1 26/26/1
f 27/27/1 38/38/1 26/26/1
f 39/39/1 38/38/1 27/27/1
f 28/28/1 39/39/1 27/27/1
f 40/40/1 39/39/1 28/28/1
f 29/29/1 40/40/1 28/28/1
f 41/41/1 40/40/1 29/29/1
f 30/30/1 41/41/1 29/29/1
f 42/42/1 41/41/1 30/30/1
f 31/31/1 42/42/1 30/30/1
f 43/43/1 42/42/1 31/31/1
f 32/32/1 43/43/1 31/31/1
f 44/44/1 43/43/1 32/32/1
f 33/33/1 44/44/1 32/32/1
f 45/45/1 46/46/1 35/35/1
f 34/34/1 45/45/1 35/35/1
f 47/47/1 45/45/1 34/34/1
f 36/36/1 47/47/1 34/34/1
f 48/48/1 47/47/1 36/36/1
f 37/37/1 48/48/1 36/36/1
f 49/49/1 48/48/1 37/37/1
f 38/38/1 49/49/1 37/37/1
f 50/50/1 49/49/1 38/38/1
f 39/39/1 50/50/1 38/38/1
f 51/51/1 50/50/1 39/39/1
f 40/40/1 51/51/1 39/39/1
f 52/52/1 51/51/1 40/40/1
f 41/41/1 52/52/1 40/40/1
f 53/53/1 52/52/1 41/41/1
f 42/42/1 53/53/1 41/41/1
f 54/54/1 53/53/1 42/42/1
f 43/43/1 54/54/1 42/42/1
f 55/55/1 54/54/1 43/43/1
f 44/44/1 55/55/1 43/43/1
f 56/56/1 57/57/1 46/46/1
f 45/45/1 56/56/1 46/46/1
f 58/58/1 56/56/1 45/45/1
f 47/47/1 58/58/1 45/45/1
f 59/59/1 58/58/1 47/47/1
f 48/48/1 59/59/1 47/47/1
f 60/60/1 59/59/1 48/48/1
f 49/49/1 60/60/1 48/48/1
f 61/61/1 60/60/1 49/49/1
f 50/50/1 61/61/1 49/49/1
f 62/62/1 61/61/1 50/50/1
f 51/51/1 62/62/1 50/50/1
f 63/63/1 62/62/1 51/51/1
f 52/52/1 63/63/1 51/51/1
f 64/64/1 63/63/1 52/52/1
f 53/53/1 64/64/1 52/52/1
f 65/65/1 64/64/1 53/53/1
f 54/54/1 65/65/1 53/53/1
f 66/66/1 65/65/1 54/54/1
f 55/55/1 66/66/1 54/54/1
f 67/67/1 68/68/1 57/57/1
f 56/56/1 67/67/1 57/57/1
f 69/69/1 67/67/1 56/56/1
f 58/58/1 69/69/1 56/56/1
f 70/70/1 69/69/1 58/58/1
f 59/59/1 70/70/1 58/58/1
f 71/71/1 70/70/1 59/59/1
f 60/60/1 71/71/1 59/59/1
f 72/72/1 71/71/1 60/60/1
f 61/61/1 72/72/1 60/60/1
f 73/73/1 72/72/1 61/61/1
f 62/62/1 73/73/1 61/61/1
f 74/74/1 73/73/1 62/62/1
f 63/63/1 74/74/1 62/62/1
f 75/75/1 74/74/1 63/63/1
f 64/64/1 75/75/1 63/63/1
f 76/76/1 75/75/1 64/64/1
f 65/65/1 76/76/1 64/64/1
f 77/77/1 76/76/1 65/65/1
f 66/66/1 77/77/1 65/65/1
f 78/78/1 79/79/1 68/68/1
f 67/67/1 78/78/1 68/68/1
f 80/80/1 78/78/1 67/67/1
f 69/69/1 80/80/1 67/67/1
f 81/81/1 80/80/1 69/69/1
f 70/70/1 81/81/1 69/69/1
f 82/82/1 81/81/1 70/70/1
f 71/71/1 82/82/1 70/70/1
f 83/83/1 82/82/1 71/71/1
f 72/72/1 83/83/1 71/71/1
f 84/84/1 83/83/1 72/72/1
f 73/73/1 84/84/1 72/72/1
f 85/85/1 84/84/1 73/73/1
f 74/74/1 85/85/1 73/73/1
f 86/86/1 85/85/1 74/74/1
f 75/75/1 86/86/1 74/74/1
f 87/87/1 86/86/1 75/75/1
f 76/76/1 87/87/1 75/75/1
f 88/88/1 87/87/1 76/76/1
f 77/77/1 88/88/1 76/76/1
f 89/89/1 90/90/1 79/79/1
f 78/78/1 89/89/1 79/79/1
f 91/91/1 89/89/1 78/78/1
f 80/80/1 91/91/1 78/78/1
f 92/92/1 91/91/1 80/80/1
f 81/81/1 92/92/1 80/80/1
f 93/93/1 92/92/1 81/81/1
f 82/82/1 93/93/1 81/81/1
f 94/94/1 93/93/1 82/82/1
f 83/83/1 94/94/1 82/82/1
f 95/95/1 94/94/1 83/83/1
f 84/84/1 95/95/1 83/83/1
f 96/96/1 95/95/1 84/84/1
f 85/85/1 96/96/1 84/84/1
f 97/97/1 96/96/1 85/85/1
f 86/86/1 97/97/1 85/85/1
f 98/98/1 97/97/1 86/86/1
f 87/87/1 98/98/1 86/86/1
f 99/99/1 98/98/1 87/87/1
f 88/88/1 99/99/1 87/87/1
f 100/100/1 101/101/1 90/90/1
f 89/89/1 100/100/1 90/90/1
f 102/102/1 100/100/1 89/89/1
f 91/91/1 102/102/1 89/89/1
f 103/103/1 102/102/1 91/91/1
f 92/92/1 103/103/1 91/91/1
f 104/104/1 103/103/1 92/92/1
f 93/93/1 104/104/1 92/92/1
f 105/105/1 104/104/1 93/93/1
f 94/94/1 105/105/1 93/93/1
f 106/106/1 105/105/1 94/94/1
f 95/95/1 106/106/1 94/94/1
f 107/107/1 106/106/1 95/95/1
f 96/96/1 107/107/1 95/95/1
f 108/108/1 107/107/1 96/96/1
f 97/97/1 108/108/1 96/96/1
f 109/109/1 108/108/1 97/97/1
f 98/98/1 109/109/1 97/97/1
f 110/110/1 109/109/1 98/98/1
f 99/99/1 110/110/1 98/98/1
f 111/111/1 112/112/1 101/101/1
f 100/100/1 111/111/1 101/101/1
f 113/113/1 111/111/1 100/100/1
f 102/102/1 113/113/1 100/100/1
f 114/114/1 113/113/1 102/102/1
f 103/103/1 114/114/1 102/102/1
f 115/115/1 114/114/1 103/103/1
f 104/104/1 115/115/1 103/103/1
f 116/116/1 115/115/1 104/104/1
f 105/105/1 116/116/1 104/104/1
f 117/117/1 116/116/1 105/105/1
f 106/106/1 117/117/1 105/105/1
f 118/118/1 117/117/1 106/106/1
f 107/107/1 118/118/1 106/106/1
f 119/119/1 118/118/1 107/107/1
f 108/108/1 119/119/1 107/107/1
f 120/120/1 119/119/1 108/108/1
f 109/109/1 120/120/1 108/108/1
f 121/121/1 120/120/1 109/109/1
f 110/110/1 121/121/1 109/109/1
s off
