# Apple ModelIO OBJ File: Stamp_Only_notexture
mtllib Stamp_Only_notexture.mtl
g 
v 1.39082 -13.6436 8.55146
v 1.39082 13.6436 8.55146
v -23.8562 13.6436 8.55146
v -23.8562 -13.6436 8.55146
v 1.39082 -13.6436 -8.55146
v 1.39082 13.6436 -8.55146
v -23.8562 -13.6436 -8.55146
v -23.8562 13.6436 -8.55146
vn 0 0 1
vn 1 0 0
vn 0 0 -1
vn -1 0 0
vn 0 1 0
vn 0 -1 0
vt 1 0
vt 1 1
vt 0 1
vt 0 0
usemtl material_1
f 1/1/1 2/2/1 3/3/1 4/4/1 
f 5/1/2 6/2/2 2/3/2 1/4/2 
f 7/1/3 8/2/3 6/3/3 5/4/3 
f 4/1/4 3/2/4 8/3/4 7/4/4 
f 2/1/5 6/2/5 8/3/5 3/4/5 
f 5/1/6 1/2/6 4/3/6 7/4/6 
s off
g _1
v -0.227099 -12.9321 0
v -0.227099 12.9321 0
v -23.8788 12.9321 0
v -23.8788 -12.9321 0
vn 0 0 1
vt 1 0
vt 1 1
vt 0 1
vt 0 0
usemtl material_2
f 9/5/7 10/6/7 11/7/7 12/8/7 
s off
